<svg version="1.1" id="Layer_1" xmlns="http://www.w3.org/2000/svg" xmlns:xlink="http://www.w3.org/1999/xlink" x="0px" y="0px"
	 width="100%" viewBox="0 0 800 800" enable-background="new 0 0 800 800" xml:space="preserve">
<path fill="#000000" opacity="1.000000" stroke="none" 
	d="
M474.000000,801.000000 
	C316.000000,801.000000 158.500000,801.000000 1.000000,801.000000 
	C1.000000,534.333313 1.000000,267.666656 1.000000,1.000000 
	C267.666656,1.000000 534.333313,1.000000 801.000000,1.000000 
	C801.000000,267.666656 801.000000,534.333313 801.000000,801.000000 
	C692.166687,801.000000 583.333313,801.000000 474.000000,801.000000 
M377.344879,8.000216 
	C372.746429,8.332061 368.111938,8.405928 363.556061,9.042459 
	C347.715210,11.255701 331.798096,13.120685 316.099731,16.113522 
	C285.286621,21.987928 255.944458,32.616596 227.739273,46.155910 
	C202.542297,58.251198 178.974548,73.063263 156.937668,90.391777 
	C137.316711,105.820564 119.289825,122.785324 102.851471,141.550613 
	C89.027550,157.331390 76.615883,174.073273 65.488953,191.864929 
	C49.960258,216.694855 37.462250,242.920197 27.820805,270.529785 
	C20.735050,290.820801 14.898526,311.464142 12.004427,332.805206 
	C9.761132,349.347260 7.176440,365.907288 6.243139,382.543427 
	C5.418533,397.242096 6.263175,412.080566 7.123289,426.813324 
	C7.838592,439.065674 8.880123,451.398773 11.149175,463.437500 
	C14.667060,482.102051 18.544460,500.776276 23.734465,519.029846 
	C31.232946,545.402405 42.681404,570.247009 56.006397,594.228088 
	C70.194305,619.762207 87.052368,643.468811 106.736122,664.913818 
	C123.369850,683.035950 141.318848,699.875488 161.076294,714.841980 
	C194.771133,740.366089 231.445221,760.083984 271.278198,773.874268 
	C293.111786,781.433228 315.434723,787.458923 338.509613,789.990417 
	C355.306183,791.833008 372.124146,794.478394 388.960205,794.704041 
	C408.735260,794.969177 428.587036,793.540222 448.316132,791.820496 
	C461.931458,790.633850 475.631256,788.648926 488.869415,785.330078 
	C507.258972,780.719666 525.435364,775.059204 543.369385,768.879944 
	C568.251587,760.306641 591.437927,748.032471 613.580139,733.862671 
	C631.232666,722.566040 648.500305,710.644348 663.487305,695.898743 
	C678.459961,681.167297 693.744934,666.614868 707.328613,650.652710 
	C718.682068,637.311279 728.148193,622.290710 737.782959,607.576904 
	C752.201965,585.556702 763.006958,561.674561 772.014221,536.995178 
	C780.224121,514.500488 786.897400,491.561035 790.045898,467.752716 
	C792.234375,451.203308 794.806458,434.646393 795.762207,418.009857 
	C796.577881,403.812164 795.734802,389.472107 794.879761,375.239838 
	C794.143677,362.987732 792.451721,350.787445 791.009888,338.584656 
	C788.749268,319.453583 783.918762,300.880341 778.170044,282.555603 
	C768.877686,252.935196 756.153381,224.890442 740.166321,198.209290 
	C725.798157,174.229858 709.382446,151.813309 689.988281,131.831711 
	C675.984009,117.403297 660.657288,104.204735 645.405884,91.054428 
	C627.424194,75.550049 607.153137,63.241180 586.250916,52.172157 
	C561.773376,39.209801 536.107361,29.118145 509.362335,21.542078 
	C479.938141,13.207074 449.961731,8.806385 419.579712,7.181676 
	C405.872803,6.448685 392.061523,7.666992 377.344879,8.000216 
z"/>
<path fill="#9C9DA2" opacity="1.000000" stroke="none" 
	d="
M377.821228,8.000099 
	C392.061523,7.666992 405.872803,6.448685 419.579712,7.181676 
	C449.961731,8.806385 479.938141,13.207074 509.362335,21.542078 
	C536.107361,29.118145 561.773376,39.209801 586.250916,52.172157 
	C607.153137,63.241180 627.424194,75.550049 645.405884,91.054428 
	C660.657288,104.204735 675.984009,117.403297 689.988281,131.831711 
	C709.382446,151.813309 725.798157,174.229858 740.166321,198.209290 
	C756.153381,224.890442 768.877686,252.935196 778.170044,282.555603 
	C783.918762,300.880341 788.749268,319.453583 791.009888,338.584656 
	C792.451721,350.787445 794.143677,362.987732 794.879761,375.239838 
	C795.734802,389.472107 796.577881,403.812164 795.762207,418.009857 
	C794.806458,434.646393 792.234375,451.203308 790.045898,467.752716 
	C786.897400,491.561035 780.224121,514.500488 772.014221,536.995178 
	C763.006958,561.674561 752.201965,585.556702 737.782959,607.576904 
	C728.148193,622.290710 718.682068,637.311279 707.328613,650.652710 
	C693.744934,666.614868 678.459961,681.167297 663.487305,695.898743 
	C648.500305,710.644348 631.232666,722.566040 613.580139,733.862671 
	C591.437927,748.032471 568.251587,760.306641 543.369385,768.879944 
	C525.435364,775.059204 507.258972,780.719666 488.869415,785.330078 
	C475.631256,788.648926 461.931458,790.633850 448.316132,791.820496 
	C428.587036,793.540222 408.735260,794.969177 388.960205,794.704041 
	C372.124146,794.478394 355.306183,791.833008 338.509613,789.990417 
	C315.434723,787.458923 293.111786,781.433228 271.278198,773.874268 
	C231.445221,760.083984 194.771133,740.366089 161.076294,714.841980 
	C141.318848,699.875488 123.369850,683.035950 106.736122,664.913818 
	C87.052368,643.468811 70.194305,619.762207 56.006397,594.228088 
	C42.681404,570.247009 31.232946,545.402405 23.734465,519.029846 
	C18.544460,500.776276 14.667060,482.102051 11.149175,463.437500 
	C8.880123,451.398773 7.838592,439.065674 7.123289,426.813324 
	C6.263175,412.080566 5.418533,397.242096 6.243139,382.543427 
	C7.176440,365.907288 9.761132,349.347260 12.004427,332.805206 
	C14.898526,311.464142 20.735050,290.820801 27.820805,270.529785 
	C37.462250,242.920197 49.960258,216.694855 65.488953,191.864929 
	C76.615883,174.073273 89.027550,157.331390 102.851471,141.550613 
	C119.289825,122.785324 137.316711,105.820564 156.937668,90.391777 
	C178.974548,73.063263 202.542297,58.251198 227.739273,46.155910 
	C255.944458,32.616596 285.286621,21.987928 316.099731,16.113522 
	C331.798096,13.120685 347.715210,11.255701 363.556061,9.042459 
	C368.111938,8.405928 372.746429,8.332061 377.821228,8.000099 
M451.588257,488.961639 
	C436.956238,487.591034 422.343536,485.438751 407.686584,485.075714 
	C393.796051,484.731598 379.860687,486.295929 365.942200,486.961761 
	C347.047852,487.865692 328.667633,491.763245 310.632202,497.108276 
	C230.702484,520.796570 168.209656,567.942078 122.607903,637.617371 
	C118.615257,643.717834 118.796051,645.944580 123.899796,651.089355 
	C128.591003,655.818237 133.425323,660.416016 138.362534,664.888367 
	C190.449387,712.070801 249.563599,746.439636 318.173279,763.545166 
	C340.293884,769.060242 362.749725,772.885315 385.453766,773.714355 
	C403.157532,774.360779 421.100189,773.804260 438.660675,771.591736 
	C457.683197,769.195068 476.699890,765.384949 495.172180,760.230957 
	C565.780884,740.530212 625.983948,703.017944 677.589233,651.300049 
	C683.457336,645.419128 683.650330,644.385559 678.870056,637.208313 
	C624.505981,555.583313 549.856995,504.896179 451.588257,488.961639 
M312.438324,190.930588 
	C273.649261,219.927658 253.830368,259.257812 250.155334,306.957489 
	C248.752502,325.165314 252.400635,342.995392 258.242767,360.245819 
	C281.608582,429.239685 353.042175,477.862396 433.996979,458.907990 
	C495.231934,444.570709 533.189758,405.189178 547.929016,344.021820 
	C552.076599,326.809692 552.141968,309.091553 549.687317,291.570068 
	C540.214844,223.954178 486.632446,169.143967 413.894989,162.869919 
	C376.956390,159.683731 343.292297,169.068741 312.438324,190.930588 
z"/>
<path fill="#FDFDFD" opacity="1.000000" stroke="none" 
	d="
M452.035339,488.940125 
	C549.856995,504.896179 624.505981,555.583313 678.870056,637.208313 
	C683.650330,644.385559 683.457336,645.419128 677.589233,651.300049 
	C625.983948,703.017944 565.780884,740.530212 495.172180,760.230957 
	C476.699890,765.384949 457.683197,769.195068 438.660675,771.591736 
	C421.100189,773.804260 403.157532,774.360779 385.453766,773.714355 
	C362.749725,772.885315 340.293884,769.060242 318.173279,763.545166 
	C249.563599,746.439636 190.449387,712.070801 138.362534,664.888367 
	C133.425323,660.416016 128.591003,655.818237 123.899796,651.089355 
	C118.796051,645.944580 118.615257,643.717834 122.607903,637.617371 
	C168.209656,567.942078 230.702484,520.796570 310.632202,497.108276 
	C328.667633,491.763245 347.047852,487.865692 365.942200,486.961761 
	C379.860687,486.295929 393.796051,484.731598 407.686584,485.075714 
	C422.343536,485.438751 436.956238,487.591034 452.035339,488.940125 
z"/>
<path fill="#FDFDFD" opacity="1.000000" stroke="none" 
	d="
M312.726196,190.717896 
	C343.292297,169.068741 376.956390,159.683731 413.894989,162.869919 
	C486.632446,169.143967 540.214844,223.954178 549.687317,291.570068 
	C552.141968,309.091553 552.076599,326.809692 547.929016,344.021820 
	C533.189758,405.189178 495.231934,444.570709 433.996979,458.907990 
	C353.042175,477.862396 281.608582,429.239685 258.242767,360.245819 
	C252.400635,342.995392 248.752502,325.165314 250.155334,306.957489 
	C253.830368,259.257812 273.649261,219.927658 312.726196,190.717896 
z"/>
</svg>